HIERARCHY
ROOT pelvis
{
  OFFSET 0 100 0
  CHANNELS 6 Xposition Yposition Zposition Zrotation Xrotation Yrotation
  JOINT pelvis_right_femur
  {
    OFFSET -10.78128 -3.44521 -0.5502486
    CHANNELS 3 Zrotation Xrotation Yrotation
    JOINT right_femur_tibia
    {
      OFFSET -0.8047443 -44.0398 -0.1307829
      CHANNELS 3 Zrotation Xrotation Yrotation
      JOINT right_tibia_foot
      {
        OFFSET 3.006224 -47.83518 -5
        CHANNELS 3 Zrotation Xrotation Yrotation
        End Site
        {
          OFFSET 0 -5 15
        }
      }
    }
  }
  JOINT pelvis_left_femur
  {
    OFFSET 10.78128 -3.44521 -0.5502486
    CHANNELS 3 Zrotation Xrotation Yrotation
    JOINT left_femur_tibia
    {
      OFFSET 0.8047443 -44.0398 -0.1307829
      CHANNELS 3 Zrotation Xrotation Yrotation
      JOINT left_tibia_foot
      {
        OFFSET -4.370144 -48.10324 -4.275266
        CHANNELS 3 Zrotation Xrotation Yrotation
        End Site
        {
          OFFSET 0 -5 15
        }
      }
    }
  }
  JOINT pelvis_spine1
  {
    OFFSET 0 6.468898 -3.129235
    CHANNELS 3 Zrotation Xrotation Yrotation
    JOINT spine1
    {
      OFFSET 0 23.15396 4.99043
      CHANNELS 3 Zrotation Xrotation Yrotation
      JOINT spine2
      {
        OFFSET 0 20.79997 -5.064912
        CHANNELS 3 Zrotation Xrotation Yrotation
        JOINT neck
        {
          OFFSET 0 14.38658 9.616178
          CHANNELS 3 Zrotation Xrotation Yrotation
          End Site
          {
            OFFSET 0 20 0
          }
        }
      }
      JOINT right_manubrium
      {
        OFFSET -5.722621 16.35077 3.967754
        CHANNELS 3 Zrotation Xrotation Yrotation
        JOINT right_clavicle
        {
          OFFSET -13.16364 1.694482 -4.693211
          CHANNELS 3 Zrotation Xrotation Yrotation
          JOINT right_humerus
          {
            OFFSET -28.5034 -0.3100689 -2.792744
            CHANNELS 3 Zrotation Xrotation Yrotation
            JOINT right_radius
            {
              OFFSET -25.15693 0.02248979 -1.271978
              CHANNELS 3 Zrotation Xrotation Yrotation
              End Site
              {
                OFFSET -15 0 0
              }
            }
          }
        }
      }
      JOINT left_manubrium
      {
        OFFSET 5.722621 16.35077 3.967754
        CHANNELS 3 Zrotation Xrotation Yrotation
        JOINT left_clavicle
        {
          OFFSET 13.16364 1.694482 -4.693211
          CHANNELS 3 Zrotation Xrotation Yrotation
          JOINT left_humerus
          {
            OFFSET 29.39168 -1.063119 -2.237045
            CHANNELS 3 Zrotation Xrotation Yrotation
            JOINT left_radius
            {
              OFFSET 24.59957 -0.9528479 0.9047498
              CHANNELS 3 Zrotation Xrotation Yrotation
              End Site
              {
                OFFSET 15 -0 -0
              }
            }
          }
        }
      }
    }
  }
}
MOTION
Frames: 23
Frame Time: 0.0416666666667
0 103.5113 0 1.227493 -0.815058 0.07872288 2.874517 -16.62928 7.872143 -0 36.46626 -0 -5.458453 -16.04823 -3.44558 -7.144709 11.93024 -23.17326 -0 4.78857 -0 6.043577 -18.20243 25.17947 -4.68361 -5.71522 3.977719 3.156827 8.498442 -9.685013 1.009932 20.42167 8.398992 4.040484 -25.19405 9.945858 6.597903 -19.59609 12.52075 83.40022 31.03491 -18.53961 -0 0 20.98828 -11.05749 9.889255 5.161433 9.882827 -21.59881 4.153829 -93.95951 18.77959 19.81118 0 0 -7.994661 12.18334 20.33245 -3.113172
0.1947494 103.4817 1.603219 0.3432164 -0.209396 -0.01245113 4.056966 -20.01643 8.412639 -0 36.71246 -0 -5.518274 -14.71668 -3.808372 -6.374122 11.9748 -22.88693 -0 5.29478 -0 3.912043 -19.68854 24.24211 -4.374077 -5.39038 3.788372 3.292253 8.299419 -9.760051 0.9839302 20.0326 8.654431 4.296936 -25.63469 10.02593 6.502939 -19.31998 12.51229 83.49128 31.03442 -18.67996 -0 0 20.56148 -11.00443 10.02519 5.157332 10.07922 -21.79024 4.286698 -93.78793 18.76606 19.3778 0 0 -8.708247 12.1182 19.92818 -3.167047
0.3960534 103.279 3.494503 -0.3582694 0.7681535 -0.1431513 5.456393 -24.72134 8.635934 -0 34.06553 -0 -5.617706 -12.71692 -3.659531 -5.921538 12.03092 -22.07167 -0 5.583936 -0 4.573379 -20.62527 24.04705 -3.337843 -3.944541 3.514313 3.761104 8.192021 -9.451789 0.985213 19.57483 8.847149 4.350674 -27.06682 10.43906 6.233558 -18.65068 12.2301 84.28249 32.90077 -19.12579 -0 0 17.57614 -9.068103 9.793314 4.894502 9.367655 -21.69098 3.178385 -92.58584 19.51537 18.166 0 0 -12.98429 13.20937 17.15367 -3.601679
0.6108215 102.8978 5.673942 -0.8777176 1.608774 -0.2506071 6.60305 -28.52746 8.870415 -0 31.0562 -0 -5.538004 -10.92749 -3.538238 -5.591254 12.14335 -21.36417 -0 5.858357 -0 4.844567 -21.64992 23.62966 -2.787437 -3.283536 3.271669 3.978229 8.068637 -9.45508 0.955117 19.14553 9.075322 4.581989 -27.68865 10.53807 6.063605 -18.17668 12.15378 84.74988 33.34835 -19.56885 -0 0 16.23905 -8.713619 9.933823 4.904352 9.322131 -21.90286 2.879214 -91.99843 19.67986 17.34515 0 0 -14.91964 13.27303 15.98677 -3.553825
0.8370084 102.3343 8.259697 -1.199034 2.429593 -0.2359118 7.460313 -31.85869 8.650515 -0 26.89541 -0 -5.499371 -8.950912 -3.146774 -5.449162 12.45439 -20.49971 -0 6.256693 -0 5.333397 -22.60658 23.00612 -2.225805 -2.590955 3.026444 4.187147 8.003227 -9.45535 0.9155907 18.7499 9.272899 4.79201 -28.23523 10.59297 5.876685 -17.65784 12.07721 85.36182 33.84557 -20.14979 -0 0 14.69913 -8.442679 10.11257 4.97773 9.213505 -22.13862 2.448621 -91.27796 19.84812 16.40846 0 0 -17.10269 13.27964 14.66697 -3.396302
1.07046 101.6489 11.32525 -1.407553 3.19182 -0.02100352 8.016185 -34.38044 8.129483 -0 22.47367 -0 -5.532988 -7.014282 -2.679858 -5.382491 12.97254 -19.55667 -0 7.046291 -0 5.310909 -23.46407 21.90859 -1.770507 -2.069732 2.802033 4.34496 7.950325 -9.509755 0.8788392 18.39191 9.432276 4.994517 -28.60758 10.57751 5.726072 -17.19693 12.02275 85.8934 34.05431 -20.72717 -0 0 13.49789 -8.440801 10.35127 5.081978 9.203762 -22.40654 2.145871 -90.70823 19.93545 15.59925 0 0 -18.7605 13.09939 13.70063 -3.124919
1.3025 100.948 14.95847 -1.578825 3.886073 0.4517211 8.305332 -35.93549 7.31098 -0 18.29202 -0 -5.786567 -5.194379 -2.193672 -5.315221 13.72984 -18.45723 -0 8.624748 -0 4.545227 -23.93198 20.15332 -1.361456 -1.602774 2.608682 4.471035 7.952317 -9.56245 0.8434662 18.10255 9.526623 5.146608 -28.85878 10.50798 5.590104 -16.75968 11.96768 86.45492 34.20966 -21.34617 -0 0 12.33178 -8.537976 10.60763 5.217277 9.155762 -22.66343 1.788705 -90.15098 20.02852 14.8457 0 0 -20.30224 12.84666 12.79819 -2.747727
1.524755 100.3742 19.2186 -1.827092 4.487197 1.180161 8.489018 -36.33393 6.450978 -0 15.20105 -0 -6.335475 -3.712929 -1.844254 -5.126333 14.61629 -17.21105 -0 11.4144 -0 2.763479 -23.59668 17.65507 -1.011905 -1.208365 2.46499 4.556033 8.013962 -9.603492 0.8140207 17.90093 9.53522 5.231928 -28.97597 10.37859 5.479246 -16.37066 11.90985 87.00757 34.29462 -21.96505 -0 0 11.26953 -8.723434 10.86823 5.369522 9.06037 -22.88613 1.387886 -89.66455 20.14792 14.23366 0 0 -21.60006 12.51526 12.02251 -2.252616
1.731789 100.0748 24.12523 -2.250692 4.93129 2.073493 8.765396 -35.44424 5.824395 -0 13.94025 -0 -7.213875 -2.775838 -1.726335 -4.705495 15.34053 -15.84377 -0 15.86441 -0 0.05932474 -21.89995 14.58031 -0.7269534 -0.8719861 2.393074 4.589656 8.159142 -9.60716 0.7892652 17.82143 9.43784 5.228655 -28.93749 10.18172 5.390856 -16.03988 11.84938 87.56322 34.3655 -22.56576 -0 0 10.27844 -8.982788 11.11595 5.549774 8.867706 -23.04595 0.8939939 -89.2402 20.32486 13.80139 0 0 -22.67343 12.11553 11.32672 -1.620033
1.929171 100.1573 29.62284 -2.867743 5.103439 2.938934 9.245555 -33.23465 5.635457 -0 14.77922 -0 -8.304284 -2.578272 -1.834335 -4.004645 15.3311 -14.46304 -0 22.24956 -0 -3.028522 -18.4754 11.46477 -0.5244617 -0.5990606 2.417176 4.556514 8.397682 -9.551877 0.768464 17.89275 9.223458 5.12616 -28.7181 9.912082 5.32463 -15.79078 11.79133 88.09251 34.44276 -23.09221 -0 0 9.401678 -9.328359 11.33414 5.770008 8.553974 -23.1129 0.3019343 -88.90723 20.57889 13.61909 0 0 -23.44477 11.64089 10.71887 -0.8377707
2.138791 100.6571 35.55389 -3.512117 4.831584 3.51898 9.758203 -29.74223 5.769135 -0 16.95223 -0 -9.329526 -3.251281 -1.997925 -3.145056 13.83126 -13.21146 -0 30.51369 -0 -5.650533 -13.62421 9.037733 -0.4250838 -0.3929322 2.56104 4.437981 8.732636 -9.41417 0.7482266 18.13616 8.897978 4.926905 -28.29195 9.571227 5.271746 -15.64878 11.7451 88.55817 34.55674 -23.46883 -0 0 8.688577 -9.794075 11.50758 6.059006 8.106182 -23.06163 -0.3816623 -88.67708 20.91255 13.73245 0 0 -23.87051 11.09106 10.17985 0.08802944
2.390762 101.5432 41.66216 -3.812652 3.952587 3.607097 9.844782 -25.03014 5.781637 -0 18.67235 -0 -9.96755 -4.78995 -1.981016 -2.467559 10.29193 -12.1779 -0 40.08846 -0 -7.135967 -8.581794 7.811273 -0.4438275 -0.2583641 2.840694 4.216653 9.14881 -9.177099 0.7246221 18.546 8.489766 4.653989 -27.64894 9.171558 5.216221 -15.6404 11.72138 88.90162 34.71989 -23.59921 -0 0 8.216534 -10.43234 11.62903 6.453146 7.543287 -22.88176 -1.116051 -88.55592 21.301 14.15906 0 0 -23.92707 10.47113 9.684595 1.124834
2.696959 102.7494 47.6653 -3.402401 2.449572 3.201919 9.112195 -19.27451 5.268015 -0 18.30136 -0 -10.09193 -6.840879 -1.700644 -2.329621 4.879829 -11.29063 -0 49.801 -0 -7.332285 -4.915972 7.849188 -0.5785767 -0.1960562 3.259108 3.88146 9.61446 -8.834919 0.6942518 19.08186 8.04417 4.347387 -26.80343 8.733551 5.136636 -15.78648 11.72844 89.05661 34.9145 -23.38918 -0 0 8.073315 -11.30199 11.7042 6.988158 6.914873 -22.58367 -1.83556 -88.54129 21.69347 14.88076 0 0 -23.62903 9.789493 9.199631 2.223157
3.027387 104.1646 53.37366 -2.267067 0.5804503 2.544762 7.675085 -12.96745 4.299002 -0 15.78328 -0 -9.831208 -8.637927 -1.299401 -2.68625 -1.539804 -10.32217 -0 57.81943 -0 -6.560511 -3.370542 8.877984 -0.8053517 -0.200243 3.804788 3.433825 10.08494 -8.393689 0.6563708 19.67755 7.606137 4.049835 -25.80112 8.279235 5.014611 -16.09846 11.76714 88.95695 35.08537 -22.76502 -0 0 8.345431 -12.43792 11.745 7.67996 6.285429 -22.18823 -2.463851 -88.6445 22.03913 15.87402 0 0 -22.99126 9.04567 8.710061 3.341955
3.324522 105.5792 58.75636 -0.8323054 -1.20028 1.928389 6.114323 -6.837779 3.31251 -0 12.46302 -0 -9.345316 -9.563754 -0.9394236 -2.966132 -8.064658 -9.036128 -0 61.89989 -0 -5.37012 -3.445225 10.50013 -1.08856 -0.2587588 4.45744 2.888976 10.51065 -7.864097 0.6127092 20.26812 7.205594 3.791192 -24.71143 7.827302 4.841347 -16.57877 11.82877 88.54356 35.16774 -21.67638 -0 0 9.098015 -13.82705 11.75425 8.51734 5.707887 -21.70875 -2.935026 -88.89989 22.3152 17.13499 0 0 -22.00393 8.230279 8.230708 4.461762
3.558829 106.6814 63.89935 0.3403694 -2.523693 1.480835 5.007558 -1.408372 2.642891 -0 9.617207 -0 -8.700462 -9.886237 -0.6479645 -2.515547 -14.1776 -7.380677 -0 60.26031 -0 -4.249486 -4.139595 12.3608 -1.396139 -0.3568221 5.193239 2.273175 10.84318 -7.256712 0.5652327 20.80791 6.858983 3.585288 -23.61372 7.394248 4.617819 -17.22181 11.89713 87.77029 35.12371 -20.09117 -0 0 10.35721 -15.40969 11.71918 9.470174 5.212492 -21.14763 -3.203326 -89.34597 22.52674 18.66522 0 0 -20.65408 7.344199 7.7935 5.566699
3.769323 107.1685 68.92426 0.8959554 -3.2728 1.159012 4.58579 3.222722 2.334119 -0 7.721335 -0 -7.943742 -10.57827 -0.3826216 -1.120608 -19.55561 -5.527121 -0 52.71665 -0 -3.411404 -4.744419 14.20138 -1.704803 -0.4806786 5.982471 1.620725 11.04239 -6.587751 0.514485 21.26716 6.579963 3.437368 -22.58454 6.997639 4.35065 -18.009 11.95355 86.62585 34.95098 -18.01613 -0 0 12.09099 -17.09912 11.62213 10.49975 4.814693 -20.51439 -3.246628 -89.98627 22.68252 20.4224 0 0 -18.98764 6.418146 7.422926 6.619491
4.04111 106.9026 73.95456 0.7984424 -3.507054 0.8583582 4.706887 7.166356 2.264965 -0 6.78135 -0 -7.110693 -12.35497 -0.09713776 0.8762019 -23.86559 -3.762018 -0 41.13328 -0 -2.827411 -4.995868 15.80897 -1.995198 -0.6177795 6.781975 0.9731828 11.08807 -5.890411 0.4606783 21.62223 6.382634 3.349621 -21.68807 6.655645 4.050819 -18.89735 11.98284 85.17069 34.66464 -15.54717 -0 0 14.18626 -18.79663 11.45856 11.55779 4.524313 -19.84465 -3.07475 -90.76283 22.78017 22.28337 0 0 -17.15 5.510802 7.123503 7.562664
4.450113 105.9882 79.13043 0.266784 -3.355105 0.4914378 5.000795 10.5223 2.275701 -0 6.766843 -0 -6.211568 -15.01329 0.2590573 2.79528 -26.84354 -2.397149 -0 28.7355 -0 -2.416413 -4.934447 17.01375 -2.247215 -0.7538399 7.53438 0.3764462 10.99431 -5.21784 0.4062172 21.85653 6.273133 3.319416 -20.96536 6.38135 3.736823 -19.81256 11.97999 83.55853 34.28063 -12.90466 -0 0 16.44077 -20.39999 11.24871 12.58205 4.343501 -19.19885 -2.739625 -91.56549 22.8116 24.05906 0 0 -15.3593 4.685995 6.881436 8.346752
5.03088 104.7199 84.617 -0.3451853 -2.989774 0.02011654 5.048569 13.36857 2.229946 -0 7.751711 -0 -5.291003 -17.52457 0.7133827 3.939724 -28.43668 -1.706343 -0 18.71927 -0 -2.152852 -4.776961 17.76843 -2.441083 -0.870482 8.179615 -0.1269449 10.81392 -4.631399 0.3568878 21.96937 6.240026 3.335426 -20.42673 6.176699 3.437311 -20.65855 11.95493 82.01119 33.81678 -10.4051 -0 0 18.59343 -21.81287 11.03499 13.50046 4.259108 -18.64029 -2.331738 -92.27408 22.77483 25.55765 0 0 -13.82668 3.986358 6.673536 8.959588
5.77919 103.4466 90.57156 -0.6803194 -2.624256 -0.5363015 4.538786 15.80394 2.088984 -0 9.915514 -0 -4.45483 -18.57733 1.197402 3.875182 -28.81109 -1.841605 -0 12.98497 -0 -2.040223 -4.792759 18.18525 -2.562783 -0.947634 8.670685 -0.5066288 10.62308 -4.182474 0.3203065 21.98026 6.255237 3.378447 -20.05424 6.032037 3.187275 -21.34087 11.92994 80.75135 33.30205 -8.371968 -0 0 20.38748 -22.95755 10.86655 14.24543 4.24192 -18.21254 -1.956496 -92.80115 22.67896 26.64629 0 0 -12.6871 3.421887 6.477754 9.431415
6.668071 102.4461 97.07995 -0.5052633 -2.469652 -1.098869 3.376023 17.87089 1.973475 -0 13.54877 -0 -3.796361 -17.17086 1.523134 2.570451 -28.20796 -2.767021 -0 11.64728 -0 -2.028394 -5.163829 18.45586 -2.609312 -0.9704808 8.981809 -0.7485283 10.4926 -3.90117 0.3028876 21.92216 6.286198 3.427842 -19.81393 5.932118 3.017951 -21.78992 11.92867 79.93461 32.77741 -7.039869 -0 0 21.63177 -23.78637 10.78158 14.7696 4.25705 -17.93371 -1.702133 -93.1049 22.54235 27.26707 0 0 -11.98722 2.978284 6.282203 9.813107
7.66148 101.8851 104.0992 0.1947082 -2.663714 -1.530567 1.732117 19.35862 2.09985 -0 19.03345 -0 -3.295429 -13.05209 1.468742 0.3777594 -26.74981 -4.24691 -0 13.43172 -0 -1.973053 -5.894741 18.71555 -2.589629 -0.9354612 9.105645 -0.8523962 10.46431 -3.796989 0.3076427 21.82866 6.309465 3.468757 -19.67034 5.863794 2.947169 -21.97088 11.96426 79.62084 32.28552 -6.508899 -0 0 22.2285 -24.28543 10.79783 15.05335 4.278111 -17.80616 -1.617825 -93.17367 22.38819 27.41112 0 0 -11.71935 2.634973 6.089146 10.14631
